#!OML:ASF H:\Terrain\Patient Classification 1\Animal1\Tuesday\Animal1.ASF
:FULLY-SPECIFIED
:DEGREES
4033
root 14.933 13.8979 -13.0616 28.4367 -25.8408 6.44421
lowerback 18.7898 -2.13918 1.80009
upperback -7.93954 -2.34467 0.696696
thorax -20.2143 -1.18151 0.654496
lowerneck -14.9092 -0.38619 -5.20182
upperneck -10.4511 0.2506 4.73949
head -0.843806 0.240651 2.43429
rclavicle 9.34288e-015 -4.13472e-014
rhumerus 71.0876 8.05459 -55.0334
rradius 117.366
rwrist 36.4291
rhand 52.4821 -14.5856
rfingers 7.12502
rthumb 71.485 -4.8876
lclavicle 9.34288e-015 -4.13472e-014
lhumerus 5.936 -25.4407 105.548
lradius 93.903
lwrist -68.1011
lhand 52.2762 69.4979
lfingers 7.12502
lthumb 71.3653 -299.702
rfemur -106.888 -14.7848 24.8451
rtibia 93.5377
rfoot 37.8461 14.9982
rtoes 6.06897
lfemur -72.3307 -16.9637 -25.7505
ltibia 72.4281
lfoot -26.5309 11.2131
ltoes 1.1092
4034
root 14.9278 13.9015 -13.053 28.4192 -25.8719 6.29512
lowerback 18.8496 -2.12665 1.89821
upperback -7.87464 -2.29901 0.69094
thorax -20.1729 -1.17473 0.575671
lowerneck -15.0647 -0.474864 -5.08527
upperneck -10.4459 0.128778 4.93573
head -0.809978 0.176873 2.47523
rclavicle -2.8625e-014 0
rhumerus 71.0577 7.98125 -55.0449
rradius 117.26
rwrist 36.3755
rhand 52.6995 -14.6453
rfingers 7.12502
rthumb 71.6098 -4.41396
lclavicle -2.8625e-014 0
lhumerus 5.9012 -25.4382 105.614
lradius 94.0715
lwrist -68.2768
lhand 52.8253 69.4786
lfingers 7.12502
lthumb 71.6812 -301.065
rfemur -106.706 -14.708 24.9748
rtibia 93.507
rfoot 38.0441 14.8459
rtoes 6.01518
lfemur -72.1828 -16.8683 -25.6819
ltibia 72.4723
lfoot -26.4141 11.5634
ltoes -0.660744
4035
root 14.9216 13.8953 -13.0497 28.4523 -25.8373 6.19804
lowerback 18.8194 -2.12643 1.91174
upperback -7.82032 -2.28748 0.733796
thorax -20.0789 -1.16728 0.611634
lowerneck -15.1565 -0.589881 -4.95201
upperneck -10.4684 -0.0355802 5.07682
head -0.793292 0.0902006 2.49224
rclavicle 5.36719e-015 -1.51076e-014
rhumerus 70.9469 7.90374 -54.9709
rradius 117.161
rwrist 36.4176
rhand 52.1923 -14.6115
rfingers 7.12502
rthumb 71.3161 -5.6132
lclavicle 5.36719e-015 -1.51076e-014
lhumerus 5.99242 -25.5107 105.649
lradius 94.1987
lwrist -68.3739
lhand 53.1833 69.881
lfingers 7.12502
lthumb 71.8815 -301.564
rfemur -106.663 -14.6458 25.0853
rtibia 93.5105
rfoot 37.4267 15.9744
rtoes 3.84756
lfemur -72.2058 -16.7391 -25.6425
ltibia 72.5466
lfoot -26.6769 11.0295
ltoes 1.48132
4036
root 14.918 13.8884 -13.0459 28.5324 -25.7634 6.19122
lowerback 18.6738 -2.14291 1.94086
upperback -7.77354 -2.30629 0.731842
thorax -19.9215 -1.18076 0.591654
lowerneck -15.0776 -0.729062 -4.87733
upperneck -10.6935 -0.222227 5.31466
head -0.869079 -0.00829617 2.5523
rclavicle 1.39149e-015 -2.14687e-014
rhumerus 70.9444 7.799 -54.9135
rradius 116.903
rwrist 36.5833
rhand 52.0825 -14.4282
rfingers 7.12502
rthumb 71.2513 -5.69179
lclavicle 1.39149e-015 -2.14687e-014
lhumerus 6.21356 -25.6833 105.623
lradius 94.1413
lwrist -68.15
lhand 52.8552 70.2706
lfingers 7.12502
lthumb 71.6982 -300.348
rfemur -106.769 -14.6822 25.1623
rtibia 93.5813
rfoot 37.0077 16.8348
rtoes 1.90687
lfemur -72.3194 -16.697 -25.6289
ltibia 72.5979
lfoot -26.8105 10.5892
ltoes 3.13198
4037
root 14.9145 13.8906 -13.0409 28.511 -25.7465 6.22927
lowerback 18.6938 -2.14461 1.90963
upperback -7.74813 -2.32154 0.703487
thorax -19.9012 -1.18604 0.580726
lowerneck -15.0063 -0.867444 -4.77313
upperneck -10.8982 -0.412966 5.51184
head -0.936834 -0.110353 2.59331
rclavicle -5.56597e-015 -3.49861e-014
rhumerus 70.9819 7.71382 -54.8524
rradius 116.686
rwrist 36.7197
rhand 52.2775 -14.5942
rfingers 7.12502
rthumb 71.366 -5.39163
lclavicle -5.56597e-015 -3.49861e-014
lhumerus 6.30335 -25.7758 105.652
lradius 93.9982
lwrist -67.7659
lhand 51.9062 70.4028
lfingers 7.12502
lthumb 71.1465 -297.917
rfemur -106.776 -14.7262 25.1664
rtibia 93.6632
rfoot 37.2386 16.485
rtoes 1.62744
lfemur -72.2992 -16.7046 -25.6457
ltibia 72.6104
lfoot -26.7152 10.5506
ltoes 2.79758
